<svg width="56" height="64" viewBox="0 0 56 64" fill="none" xmlns="http://www.w3.org/2000/svg">
<path d="M55.8834 0L50.7922 57.0334L27.9075 63.3778L5.08572 57.0423L0 0H55.8834Z" fill="#494949"/>
<path d="M27.9414 58.5287L46.4334 53.402L50.7841 4.66437H27.9414V58.5287Z" fill="#606060"/>
<path d="M27.941 25.8205H11.6582L12.2852 32.8164H27.941V25.8205Z" fill="#EBEBEB"/>
<path d="M27.9411 11.6602H27.9169H10.3984L11.0344 18.6562H27.9411V11.6602Z" fill="#EBEBEB"/>
<path d="M12.5977 36.3146L13.5778 47.2993L27.9086 51.2776L27.9408 51.2687V43.9899L27.9101 43.9981L20.1186 41.8942L19.6206 36.3146H15.8345H12.5977Z" fill="#EBEBEB"/>
<path d="M36.5328 32.8162L35.7207 41.8895L27.918 43.9955V51.274L42.2602 47.299L42.3654 46.1171L44.0094 27.6989L44.1801 25.8202L45.4431 11.6602H27.918V18.6562H37.7761L37.1395 25.8202H27.918V32.8162H36.5328Z" fill="white"/>
</svg>
