<svg width="51" height="52" viewBox="0 0 51 52" fill="none" xmlns="http://www.w3.org/2000/svg">
<g clip-path="url(#clip0_3839_116440)">
<path d="M50.1334 12.3572C50.1517 12.4247 50.1611 12.4942 50.1613 12.564V23.4177C50.1613 23.557 50.1243 23.6938 50.054 23.8144C49.9838 23.9349 49.8828 24.0349 49.7612 24.1042L40.5972 29.349V39.7447C40.5972 40.0276 40.4459 40.2888 40.1991 40.4312L21.0699 51.3779C21.0261 51.4026 20.9783 51.4185 20.9306 51.4353C20.9127 51.4412 20.8957 51.4521 20.8768 51.457C20.7431 51.492 20.6026 51.492 20.4688 51.457C20.4469 51.4511 20.427 51.4392 20.4061 51.4313C20.3624 51.4155 20.3166 51.4016 20.2748 51.3779L1.14955 40.4312C1.02805 40.3618 0.927102 40.2618 0.85687 40.1413C0.786638 40.0208 0.749608 39.884 0.749512 39.7447V7.18363C0.749512 7.11241 0.759463 7.04316 0.777375 6.9759C0.783346 6.95315 0.797278 6.93237 0.805239 6.90962C0.820165 6.86807 0.834097 6.82554 0.85599 6.78696C0.870917 6.76124 0.892809 6.74046 0.910721 6.71672C0.933609 6.68507 0.954507 6.65242 0.981375 6.62473C1.00426 6.60197 1.03412 6.58516 1.05999 6.56537C1.08885 6.54163 1.11472 6.51591 1.14756 6.49712L10.7117 1.02378C10.8328 0.954515 10.97 0.91806 11.1097 0.91806C11.2494 0.91806 11.3867 0.954515 11.5078 1.02378L21.0709 6.49712H21.0729C21.1047 6.5169 21.1316 6.54163 21.1604 6.56438C21.1863 6.58417 21.2152 6.60197 21.2381 6.62374C21.2659 6.65242 21.2858 6.68507 21.3097 6.71672C21.3266 6.74046 21.3495 6.76124 21.3634 6.78696C21.3863 6.82653 21.3993 6.86807 21.4152 6.90962C21.4232 6.93237 21.4371 6.95315 21.4431 6.97689C21.4614 7.0443 21.4707 7.11381 21.4709 7.18363V27.5209L29.4399 22.9597V12.563C29.4399 12.4938 29.4498 12.4235 29.4677 12.3572C29.4747 12.3335 29.4876 12.3127 29.4956 12.29C29.5115 12.2484 29.5254 12.2059 29.5473 12.1673C29.5623 12.1416 29.5841 12.1208 29.6011 12.0971C29.6249 12.0654 29.6448 12.0328 29.6727 12.0051C29.6956 11.9823 29.7245 11.9655 29.7503 11.9457C29.7802 11.922 29.8061 11.8963 29.8379 11.8775L39.403 6.40413C39.5241 6.33477 39.6613 6.29826 39.8011 6.29826C39.9408 6.29826 40.078 6.33477 40.1991 6.40413L49.7622 11.8775C49.7961 11.8973 49.8219 11.922 49.8518 11.9447C49.8767 11.9645 49.9055 11.9823 49.9284 12.0041C49.9563 12.0328 49.9762 12.0654 50.0001 12.0971C50.018 12.1208 50.0399 12.1416 50.0538 12.1673C50.0767 12.2059 50.0896 12.2484 50.1055 12.29C50.1145 12.3127 50.1274 12.3335 50.1334 12.3572ZM48.5671 22.9597V13.9341L45.2205 15.8492L40.5972 18.4953V27.5209L48.5681 22.9597H48.5671ZM39.004 39.2867V30.2551L34.4563 32.837L21.4699 40.2047V49.3213L39.004 39.2867ZM2.3437 8.5537V39.2867L19.8757 49.3203V40.2057L10.7166 35.0528L10.7137 35.0509L10.7097 35.0489C10.6788 35.0311 10.653 35.0054 10.6241 34.9836C10.5992 34.9638 10.5704 34.948 10.5485 34.9262L10.5465 34.9233C10.5206 34.8985 10.5027 34.8679 10.4808 34.8402C10.4609 34.8135 10.437 34.7907 10.4211 34.763L10.4201 34.76C10.4022 34.7304 10.3912 34.6947 10.3783 34.6611C10.3654 34.6314 10.3485 34.6037 10.3405 34.5721C10.3305 34.5345 10.3285 34.4939 10.3246 34.4554C10.3206 34.4257 10.3126 34.396 10.3126 34.3663V13.115L5.69029 10.4678L2.3437 8.5537ZM11.1107 2.62433L3.14278 7.18363L11.1087 11.7429L19.0757 7.18264L11.1087 2.62433H11.1107ZM15.2544 31.0782L19.8767 28.433V8.5537L16.5301 10.4688L11.9068 13.115V32.9943L15.2544 31.0782ZM39.8011 8.00468L31.8341 12.564L39.8011 17.1233L47.767 12.563L39.8011 8.00468ZM39.004 18.4953L34.3806 15.8492L31.034 13.9341V22.9597L35.6564 25.6048L39.004 27.5209V18.4953ZM20.6718 38.8346L32.3575 32.2029L38.1989 28.889L30.2379 24.3327L21.0719 29.5785L12.7178 34.3594L20.6718 38.8346Z" fill="white"/>
</g>
<defs>
<clipPath id="clip0_3839_116440">
<rect width="49.4998" height="50.8748" fill="white" transform="translate(0.749756 0.749817)"/>
</clipPath>
</defs>
</svg>
