<svg width="54" height="27" viewBox="0 0 54 27" fill="none" xmlns="http://www.w3.org/2000/svg">
<path fill-rule="evenodd" clip-rule="evenodd" d="M0.333984 26.1902L4.36703 5.84622H13.6927C17.7254 6.09746 19.742 8.10654 19.742 11.6231C19.742 17.6508 14.9531 21.1671 10.6679 20.9158H6.13142L5.12316 26.1902H0.333984ZM7.1394 17.1486L8.3998 9.6137H11.6764C13.4408 9.6137 14.7009 10.3671 14.7009 11.874C14.4491 16.144 12.4326 16.8974 10.1642 17.1486H7.1394ZM18.805 20.9158L22.8378 0.572159H27.6269L26.6187 5.84622H31.1554C35.1885 6.09746 36.7007 8.10654 36.1967 10.6184L34.4324 20.9158H29.3913L31.1557 11.6231C31.4076 10.3671 31.4076 9.6137 29.6435 9.6137H25.8625L23.5942 20.9158H18.805ZM34.1095 26.1902L38.1422 5.84622H47.4682C51.5012 6.09746 53.5177 8.10654 53.5177 11.6231C53.5177 17.6508 48.7286 21.1671 44.4437 20.9158H39.9066L38.8984 26.1902H34.1095ZM40.9146 17.1486L42.175 9.6137H45.4519C47.2163 9.6137 48.4764 10.3671 48.4764 11.874C48.2246 16.144 46.2081 16.8974 43.9397 17.1486H40.9149H40.9146Z" fill="white"/>
</svg>
