<svg width="55" height="55" viewBox="0 0 55 55" fill="none" xmlns="http://www.w3.org/2000/svg">
<path d="M22.105 2.2919C18.1221 2.2919 14.897 5.51703 14.897 9.49992V13.7341H25.709C26.6921 13.7341 27.5011 15.1734 27.5011 16.1565H9.50099C5.5181 16.1565 2.29297 19.3816 2.29297 23.3645V32.8962C2.29297 36.8791 5.5181 40.1042 9.50099 40.1042H12.4748V33.3492C12.4748 29.3663 15.6803 26.1412 19.6632 26.1412H32.8974C36.8803 26.1412 40.1055 22.9357 40.1055 18.9528V9.49977C40.1055 5.51688 36.8803 2.29175 32.8974 2.29175L22.105 2.2919ZM20.2931 6.3489C21.3015 6.3489 22.105 6.65377 22.105 8.14105C22.105 9.62833 21.3015 10.3861 20.2931 10.3861C19.31 10.3861 18.501 9.62833 18.501 8.14105C18.501 6.65377 19.31 6.3489 20.2931 6.3489Z" fill="#494949"/>
<path d="M42.5223 14.8962V21.6513C42.5223 25.6342 39.3218 28.8594 35.3389 28.8594H22.1045C18.1216 28.8594 14.8965 32.0598 14.8965 36.0427V45.4958C14.8956 47.4083 15.6546 49.2427 17.0064 50.5954C18.3583 51.9481 20.1921 52.7083 22.1045 52.7087H32.8967C34.8091 52.7083 36.643 51.9481 37.9948 50.5954C39.3467 49.2427 40.1057 47.4083 40.1048 45.4958V41.2616H29.2879C28.3048 41.2616 27.5007 39.8273 27.5007 38.8442H45.5009C47.4133 38.8438 49.2472 38.0836 50.599 36.7308C51.9509 35.3781 52.7099 33.5437 52.709 31.6313V22.1043C52.7081 18.1238 49.4815 14.8971 45.5009 14.8963L42.5223 14.8962ZM18.2247 26.2745L18.2149 26.2843C18.2451 26.2783 18.2781 26.2803 18.3085 26.2745H18.2247ZM34.7087 44.6146C35.6918 44.6146 36.5009 45.3724 36.5009 46.8597C36.4994 47.8481 35.6971 48.6482 34.7087 48.6469C33.7004 48.6469 32.8969 48.347 32.8969 46.8597C32.8969 45.3724 33.7004 44.6146 34.7087 44.6146Z" fill="#606060"/>
</svg>
