<svg width="54" height="54" viewBox="0 0 54 54" fill="none" xmlns="http://www.w3.org/2000/svg">
<g clip-path="url(#clip0_3839_116454)">
<path d="M3.81375 27C3.81375 36.1969 9.09562 44.1197 16.8075 47.8372L5.86912 17.6091C4.59844 20.5436 3.81375 23.6756 3.81375 27ZM42.6516 25.8255C42.6516 22.9905 41.5749 20.9318 40.6941 19.467C39.5196 17.5095 38.4446 15.9452 38.4446 13.9894C38.4446 11.8378 40.1085 9.88031 42.3596 9.88031H42.6532C38.5425 6.06488 33.0649 3.81375 27 3.81375C23.1628 3.84772 19.3922 4.81921 16.0163 6.64361C12.6404 8.46801 9.76174 11.09 7.63087 14.2813H9.099C11.5459 14.2813 15.2617 13.9877 15.2617 13.9877C16.5341 13.8898 16.632 15.7478 15.4575 15.9452C15.4575 15.9452 14.1851 16.1409 12.8166 16.1409L21.2304 41.1834L26.3166 26.0196L22.6969 16.1392L20.25 15.9469C18.9776 15.849 19.1734 13.9894 20.3479 13.9894C20.3479 13.9894 24.1616 14.283 26.4128 14.283C28.8596 14.283 32.5755 13.9894 32.5755 13.9894C33.8479 13.8915 33.9458 15.7494 32.7713 15.9469C32.7713 15.9469 31.4989 16.1426 30.1303 16.1426L38.5425 41.0906L40.905 33.3619C41.8838 30.1337 42.6651 27.8842 42.6651 25.8289L42.6516 25.8255ZM27.3915 29.0537L20.4458 49.2075C22.4994 49.7948 24.7489 50.1862 27 50.1862C29.7388 50.1862 32.2819 49.68 34.7287 48.9139C34.6309 48.816 34.6309 48.7181 34.533 48.6203L27.3915 29.0537ZM47.3479 15.9469L47.5436 18.3094C47.5436 20.6719 47.1521 23.2993 45.7836 26.6254L38.7399 47.0711C45.5878 43.0599 50.2824 35.6248 50.2824 27.0169C50.1846 23.0057 49.1079 19.2881 47.3462 15.9637L47.3479 15.9469ZM27 0C12.1297 0 0 12.1297 0 27C0 41.8703 12.1297 54 27 54C41.8703 54 54 41.8703 54 27C54 12.1297 41.8703 0 27 0ZM27 52.8255C12.8149 52.8255 1.27237 41.283 1.27237 27C1.28309 20.1799 3.99711 13.6422 8.81965 8.81965C13.6422 3.99711 20.1799 1.28309 27 1.27237C33.8201 1.28309 40.3578 3.99711 45.1803 8.81965C50.0029 13.6422 52.7169 20.1799 52.7276 27C52.7276 41.283 41.1851 52.8255 27 52.8255Z" fill="white"/>
</g>
<defs>
<clipPath id="clip0_3839_116454">
<rect width="54" height="54" fill="white"/>
</clipPath>
</defs>
</svg>
