<svg width="42" height="42" viewBox="0 0 42 42" fill="none" xmlns="http://www.w3.org/2000/svg">
<path d="M16.1177 28.0294C15.8577 28.5167 16.0421 29.1224 16.5294 29.3823C17.0167 29.6423 17.6224 29.4579 17.8823 28.9706L16.1177 28.0294ZM25.9578 13.2089C25.797 12.6805 25.2384 12.3825 24.71 12.5433L16.0998 15.1633C15.5714 15.324 15.2734 15.8827 15.4342 16.4111C15.595 16.9394 16.1536 17.2374 16.682 17.0766L24.3355 14.7478L26.6644 22.4013C26.8252 22.9297 27.3838 23.2277 27.9122 23.0669C28.4405 22.9061 28.7385 22.3475 28.5778 21.8191L25.9578 13.2089ZM17.8823 28.9706L25.8834 13.9706L24.1188 13.0293L16.1177 28.0294L17.8823 28.9706Z" fill="white"/>
<circle cx="21" cy="21" r="20" stroke="white" stroke-width="1.25"/>
</svg>
