<svg width="170" height="59" viewBox="0 0 170 59" fill="none" xmlns="http://www.w3.org/2000/svg">
<path d="M27.4221 32.025V31.2519V30.2099V25.2687V24.2267L28.2288 22.546L32.2625 19.3527C32.8003 18.9158 33.607 19.2855 33.607 19.9914V35.3191C33.607 36.025 32.7667 36.3948 32.2288 35.9578L27.4221 32.025Z" fill="#565656"/>
<path d="M14.0408 17L7.51978 23.521H14.0408V17Z" fill="#565656"/>
<path d="M14.0408 23.5545H7.51978V32.0587H14.0408V23.5545Z" fill="#565656"/>
<path d="M7.51978 32.0253V36.395C7.51978 37.6051 8.49457 38.5799 9.70465 38.5799H14.0744V32.0589H7.51978V32.0253Z" fill="#565656"/>
<path d="M28.2578 19.1513C28.2578 17.9748 27.283 17 26.1401 17H21.8712H14.0393V23.521H22.0393V27.7899L28.2578 27.5882V19.1513Z" fill="#565656"/>
<path d="M22.0393 32.0253H14.0393V38.5463H21.8376H26.1065C27.283 38.5463 28.2242 37.5716 28.2242 36.3951V27.79H22.0393V32.0253Z" fill="#565656"/>
<path d="M28.2578 22.5796V32.6972L22.0393 27.7897L28.2578 22.5796Z" fill="#565656"/>
<path d="M119.889 35.6889H117.973V20.731H119.889L125.099 29.8402H125.166L130.376 20.731H132.292V35.6889H130.376V26.815L130.443 24.294H130.376L125.704 32.4957H124.561L119.889 24.294H119.822L119.889 26.815V35.6889Z" fill="#565656"/>
<path d="M139.589 36.025C138.077 36.025 136.833 35.5208 135.858 34.4787C134.883 33.4367 134.379 32.1594 134.379 30.5796C134.379 29.0334 134.85 27.7224 135.791 26.6804C136.732 25.6384 137.942 25.1006 139.421 25.1006C140.934 25.1006 142.144 25.6048 143.051 26.5796C143.959 27.5544 144.396 28.9325 144.396 30.714L144.362 30.9157H136.329C136.362 31.9241 136.698 32.7308 137.337 33.3359C137.976 33.9409 138.749 34.2434 139.623 34.2434C140.833 34.2434 141.808 33.6384 142.514 32.3947L144.228 33.235C143.757 34.109 143.119 34.7813 142.312 35.2518C141.539 35.7897 140.631 36.025 139.589 36.025ZM136.53 29.3359H142.379C142.312 28.63 142.043 28.025 141.505 27.588C141.001 27.1174 140.295 26.8821 139.421 26.8821C138.682 26.8821 138.077 27.1174 137.539 27.5544C137.035 27.9913 136.698 28.5964 136.53 29.3359Z" fill="#565656"/>
<path d="M150.882 36.025C149.37 36.025 148.126 35.5208 147.151 34.4787C146.176 33.4367 145.672 32.1594 145.672 30.5796C145.672 29.0334 146.143 27.7224 147.084 26.6804C148.025 25.6384 149.235 25.1006 150.714 25.1006C152.227 25.1006 153.437 25.6048 154.344 26.5796C155.252 27.5544 155.689 28.9325 155.689 30.714L155.655 30.9157H147.622C147.655 31.9241 147.991 32.7308 148.63 33.3359C149.269 33.9409 150.042 34.2434 150.916 34.2434C152.126 34.2434 153.101 33.6384 153.807 32.3947L155.521 33.235C155.05 34.109 154.412 34.7813 153.605 35.2518C152.865 35.7897 151.924 36.025 150.882 36.025ZM147.823 29.3359H153.706C153.639 28.63 153.37 28.025 152.832 27.588C152.328 27.1174 151.622 26.8821 150.748 26.8821C150.008 26.8821 149.403 27.1174 148.865 27.5544C148.328 27.9913 147.991 28.5964 147.823 29.3359Z" fill="#565656"/>
<path d="M161.269 35.8568C160.428 35.8568 159.722 35.5879 159.185 35.0837C158.647 34.5795 158.378 33.84 158.344 32.9324V27.2181H156.563V25.4366H158.344V22.3105H160.26V25.4366H162.781V27.1845H160.26V32.2937C160.26 32.966 160.395 33.4366 160.664 33.7055C160.932 33.9408 161.235 34.0753 161.571 34.0753C161.739 34.0753 161.874 34.0753 162.008 34.0416C162.176 34.008 162.311 33.9408 162.411 33.9072L163.017 35.6215C162.512 35.7559 161.907 35.8568 161.269 35.8568Z" fill="#565656"/>
<path d="M54.5787 29.3696V27.0839H62.2425C62.3098 27.4872 62.377 27.9578 62.377 28.4956C62.377 30.2099 61.9064 32.3276 60.3938 33.8402C58.9148 35.3864 57.0324 36.1931 54.545 36.1931C49.94 36.1931 46.0745 32.4284 46.0745 27.8234C46.0745 23.2183 49.94 19.4536 54.545 19.4536C57.0997 19.4536 58.9148 20.462 60.2593 21.7729L58.6459 23.3864C57.6711 22.4788 56.3266 21.7393 54.5114 21.7393C51.1501 21.7393 48.5282 24.462 48.5282 27.8234C48.5282 31.1847 51.1501 33.9074 54.5114 33.9074C56.6963 33.9074 57.94 33.0334 58.7467 32.2267C59.3854 31.5881 59.8224 30.6469 59.9904 29.3696H54.5787Z" fill="#565656"/>
<path d="M74.0074 30.7814C74.0074 33.8738 71.5872 36.1596 68.5956 36.1596C65.604 36.1596 63.1838 33.8738 63.1838 30.7814C63.1838 27.6554 65.604 25.4033 68.5956 25.4033C71.5536 25.4033 74.0074 27.6554 74.0074 30.7814ZM71.6208 30.7814C71.6208 28.8318 70.209 27.5209 68.5956 27.5209C66.9485 27.5209 65.5704 28.8318 65.5704 30.7814C65.5704 32.6974 66.9822 34.0419 68.5956 34.0419C70.209 34.0419 71.6208 32.6974 71.6208 30.7814Z" fill="#565656"/>
<path d="M85.7691 30.7815C85.7691 33.8739 83.3489 36.1596 80.3573 36.1596C77.3657 36.1596 74.9456 33.8739 74.9456 30.7815C74.9456 27.6554 77.3657 25.4033 80.3573 25.4033C83.3489 25.4033 85.7691 27.6554 85.7691 30.7815ZM83.4161 30.7815C83.4161 28.8319 82.0044 27.521 80.3909 27.521C78.7439 27.521 77.3657 28.8319 77.3657 30.7815C77.3657 32.6974 78.7775 34.042 80.3909 34.042C82.0044 34.042 83.4161 32.6974 83.4161 30.7815Z" fill="#565656"/>
<path d="M97.0984 25.7053V35.3859C97.0984 39.3523 94.7455 40.9994 91.9892 40.9994C89.3674 40.9994 87.8211 39.2515 87.2161 37.8061L89.2665 36.9658C89.6363 37.8397 90.5438 38.8817 91.9892 38.8817C93.7707 38.8817 94.88 37.7725 94.88 35.7221V34.949H94.8127C94.2749 35.5876 93.2665 36.1591 91.9892 36.1591C89.3001 36.1591 86.8127 33.8061 86.8127 30.7809C86.8127 27.7557 89.2665 25.3691 91.9892 25.3691C93.2665 25.3691 94.3085 25.9406 94.8127 26.5792H94.88V25.7053H97.0984ZM95.0144 30.7809C95.0144 28.8985 93.7371 27.4868 92.1237 27.4868C90.4766 27.4868 89.1321 28.8649 89.1321 30.7809C89.1321 32.6633 90.5102 34.0414 92.1237 34.0414C93.7371 34.0414 95.0144 32.6633 95.0144 30.7809Z" fill="#565656"/>
<path d="M101.099 20.0586V35.8233H98.7463V20.0586H101.099Z" fill="#565656"/>
<path d="M110.24 32.563L112.089 33.7731C111.484 34.647 110.072 36.1596 107.618 36.1596C104.559 36.1596 102.274 33.8067 102.274 30.7815C102.274 27.5882 104.593 25.4033 107.349 25.4033C110.139 25.4033 111.517 27.6218 111.954 28.8319L112.19 29.4369L104.996 32.4285C105.534 33.5042 106.408 34.0756 107.618 34.0756C108.761 34.042 109.601 33.4369 110.24 32.563ZM104.559 30.6134L109.366 28.6302C109.097 27.9579 108.29 27.4874 107.383 27.4874C106.173 27.4537 104.526 28.5294 104.559 30.6134Z" fill="#565656"/>
</svg>
