<svg width="114" height="28" viewBox="0 0 114 28" fill="none" xmlns="http://www.w3.org/2000/svg">
<path d="M10.5021 17.5793H13.6559L16.2996 21.0577L16.9952 21.9853L20.9375 27.2262H17.7837L15.1864 23.7478L14.5371 22.8665L10.5021 17.5793ZM21.9115 13.1268C21.9115 15.6313 21.4593 17.7957 20.5549 19.62C19.6505 21.4442 18.4098 22.8511 16.8329 23.8405C15.256 24.8299 13.4549 25.3247 11.4297 25.3247C9.40447 25.3247 7.6034 24.8299 6.02649 23.8405C4.44959 22.8511 3.20894 21.4442 2.30454 19.62C1.40014 17.7957 0.947939 15.6313 0.947939 13.1268C0.947939 10.6224 1.40014 8.45798 2.30454 6.63372C3.20894 4.80946 4.44959 3.40261 6.02649 2.41319C7.6034 1.42376 9.40447 0.929041 11.4297 0.929041C13.4549 0.929041 15.256 1.42376 16.8329 2.41319C18.4098 3.40261 19.6505 4.80946 20.5549 6.63372C21.4593 8.45798 21.9115 10.6224 21.9115 13.1268ZM19.1287 13.1268C19.1287 11.0707 18.7847 9.33533 18.0968 7.92075C17.4165 6.50618 16.4928 5.43558 15.3256 4.70897C14.1661 3.98236 12.8675 3.61905 11.4297 3.61905C9.99194 3.61905 8.68945 3.98236 7.52223 4.70897C6.36275 5.43558 5.43902 6.50618 4.75106 7.92075C4.07083 9.33533 3.73071 11.0707 3.73071 13.1268C3.73071 15.183 4.07083 16.9184 4.75106 18.3329C5.43902 19.7475 6.36275 20.8181 7.52223 21.5447C8.68945 22.2713 9.99194 22.6346 11.4297 22.6346C12.8675 22.6346 14.1661 22.2713 15.3256 21.5447C16.4928 20.8181 17.4165 19.7475 18.0968 18.3329C18.7847 16.9184 19.1287 15.183 19.1287 13.1268ZM26.7465 25V1.2537H29.4829V10.0194H29.7148C29.9158 9.71023 30.1941 9.316 30.5497 8.83674C30.913 8.34976 31.4309 7.91689 32.1034 7.53812C32.7836 7.15162 33.7035 6.95838 34.8629 6.95838C36.3625 6.95838 37.6844 7.33328 38.8284 8.08308C39.9724 8.83288 40.8652 9.89574 41.5068 11.2717C42.1484 12.6476 42.4692 14.2709 42.4692 16.1415C42.4692 18.0276 42.1484 19.6625 41.5068 21.0461C40.8652 22.4221 39.9763 23.4888 38.84 24.2463C37.7037 24.9961 36.3935 25.371 34.9093 25.371C33.7653 25.371 32.8493 25.1817 32.1613 24.8029C31.4734 24.4164 30.9439 23.9797 30.5728 23.4927C30.2018 22.998 29.9158 22.5883 29.7148 22.2636H29.3902V25H26.7465ZM29.4365 16.0951C29.4365 17.4401 29.6337 18.6267 30.0279 19.6548C30.4221 20.6751 30.998 21.4752 31.7555 22.0549C32.5131 22.6269 33.4406 22.9129 34.5383 22.9129C35.6823 22.9129 36.637 22.6115 37.4022 22.0085C38.1752 21.3979 38.755 20.5785 39.1415 19.5504C39.5357 18.5146 39.7328 17.3628 39.7328 16.0951C39.7328 14.8429 39.5395 13.7143 39.153 12.7094C38.7743 11.6968 38.1984 10.8968 37.4254 10.3093C36.6602 9.71409 35.6978 9.41649 34.5383 9.41649C33.4252 9.41649 32.4899 9.69863 31.7323 10.2629C30.9748 10.8195 30.4028 11.6002 30.0163 12.6051C29.6298 13.6022 29.4365 14.7656 29.4365 16.0951ZM54.4003 7.19027V9.50925H45.1708V7.19027H54.4003ZM47.8608 2.92336H50.5972V19.8983C50.5972 20.6712 50.7093 21.251 50.9334 21.6375C51.1653 22.0163 51.4591 22.2713 51.8146 22.4027C52.178 22.5264 52.5606 22.5883 52.9625 22.5883C53.264 22.5883 53.5114 22.5728 53.7046 22.5419C53.8979 22.5032 54.0525 22.4723 54.1684 22.4491L54.725 24.9072C54.5394 24.9768 54.2805 25.0464 53.9481 25.1159C53.6157 25.1932 53.1944 25.2319 52.6843 25.2319C51.9113 25.2319 51.1537 25.0657 50.4117 24.7333C49.6773 24.4009 49.0667 23.8946 48.5797 23.2144C48.1004 22.5342 47.8608 21.6761 47.8608 20.6403V2.92336ZM58.5165 25V7.19027H61.1601V9.88028H61.3456C61.6703 8.99907 62.2578 8.28406 63.1081 7.73523C63.9583 7.18641 64.9169 6.912 65.9836 6.912C66.1846 6.912 66.4358 6.91586 66.7373 6.92359C67.0387 6.93132 67.2668 6.94292 67.4214 6.95838V9.74115C67.3286 9.71796 67.116 9.68317 66.7836 9.63679C66.459 9.58268 66.115 9.55563 65.7517 9.55563C64.8859 9.55563 64.1129 9.73728 63.4327 10.1006C62.7602 10.4562 62.2268 10.9509 61.8326 11.5847C61.4461 12.2109 61.2529 12.9259 61.2529 13.7298V25H58.5165ZM70.665 25V7.19027H73.4014V25H70.665ZM72.0564 4.22199C71.523 4.22199 71.0631 4.04033 70.6766 3.67703C70.2978 3.31372 70.1085 2.87698 70.1085 2.36681C70.1085 1.85663 70.2978 1.41989 70.6766 1.05658C71.0631 0.693279 71.523 0.511626 72.0564 0.511626C72.5898 0.511626 73.0458 0.693279 73.4246 1.05658C73.8111 1.41989 74.0043 1.85663 74.0043 2.36681C74.0043 2.87698 73.8111 3.31372 73.4246 3.67703C73.0458 4.04033 72.5898 4.22199 72.0564 4.22199ZM80.454 7.19027L84.7209 14.4719L88.9878 7.19027H92.1416L86.3906 16.0951L92.1416 25H88.9878L84.7209 18.0895L80.454 25H77.3002L82.9585 16.0951L77.3002 7.19027H80.454ZM101.241 14.3791V5.82208H105.577C105.925 5.82208 106.304 5.92257 106.713 6.12355C107.123 6.31679 107.471 6.61826 107.757 7.02795C108.051 7.4299 108.198 7.94008 108.198 8.55847C108.198 9.18459 108.047 9.71796 107.745 10.1586C107.444 10.5914 107.077 10.92 106.644 11.1441C106.219 11.3683 105.817 11.4804 105.438 11.4804H102.307V10.089H104.858C105.113 10.089 105.388 9.96145 105.682 9.70636C105.983 9.45127 106.134 9.06864 106.134 8.55847C106.134 8.03283 105.983 7.67726 105.682 7.49174C105.388 7.30622 105.129 7.21346 104.905 7.21346H103.119V14.3791H101.241ZM106.412 10.3441L108.545 14.3791H106.482L104.395 10.3441H106.412ZM104.487 19.4808C103.204 19.4808 102.002 19.2412 100.881 18.762C99.7604 18.2827 98.7749 17.6179 97.9246 16.7676C97.0743 15.9173 96.4095 14.9318 95.9302 13.8109C95.451 12.6901 95.2114 11.4881 95.2114 10.2049C95.2114 8.92177 95.451 7.71977 95.9302 6.59893C96.4095 5.4781 97.0743 4.49253 97.9246 3.64224C98.7749 2.79195 99.7604 2.12718 100.881 1.64792C102.002 1.16867 103.204 0.929041 104.487 0.929041C105.77 0.929041 106.972 1.16867 108.093 1.64792C109.214 2.12718 110.2 2.79195 111.05 3.64224C111.9 4.49253 112.565 5.4781 113.044 6.59893C113.524 7.71977 113.763 8.92177 113.763 10.2049C113.763 11.4881 113.524 12.6901 113.044 13.8109C112.565 14.9318 111.9 15.9173 111.05 16.7676C110.2 17.6179 109.214 18.2827 108.093 18.762C106.972 19.2412 105.77 19.4808 104.487 19.4808ZM104.487 17.2546C105.786 17.2546 106.969 16.9377 108.035 16.3038C109.102 15.67 109.952 14.8197 110.586 13.753C111.22 12.6862 111.537 11.5036 111.537 10.2049C111.537 8.90631 111.22 7.72364 110.586 6.65691C109.952 5.59018 109.102 4.73989 108.035 4.10604C106.969 3.47218 105.786 3.15526 104.487 3.15526C103.189 3.15526 102.006 3.47218 100.939 4.10604C99.8725 4.73989 99.0222 5.59018 98.3884 6.65691C97.7545 7.72364 97.4376 8.90631 97.4376 10.2049C97.4376 11.5036 97.7545 12.6862 98.3884 13.753C99.0222 14.8197 99.8725 15.67 100.939 16.3038C102.006 16.9377 103.189 17.2546 104.487 17.2546Z" fill="white"/>
</svg>
