<svg width="135" height="28" viewBox="0 0 135 28" fill="none" xmlns="http://www.w3.org/2000/svg">
<g clip-path="url(#clip0_3839_115565)">
<path d="M56.1449 5.59991V22.3999H53.1468V9.21658H53.1068L47.7501 22.3999H45.7514L40.2748 9.21658H40.2348V22.3999H37.4766V5.59991H41.7939L46.7508 18.0444H46.8307L52.0674 5.59991H56.1449ZM58.6233 6.88325C58.6233 6.41658 58.7832 6.02769 59.143 5.71658C59.5028 5.40547 59.9025 5.24991 60.3822 5.24991C60.9019 5.24991 61.3416 5.40547 61.6614 5.71658C61.9812 6.02769 62.1811 6.41658 62.1811 6.88325C62.1811 7.34991 62.0212 7.7388 61.6614 8.04991C61.3017 8.36102 60.9019 8.51658 60.3822 8.51658C59.8626 8.51658 59.4628 8.36102 59.143 8.04991C58.8232 7.69991 58.6233 7.31102 58.6233 6.88325ZM61.8613 10.3444V22.3999H58.9431V10.3444H61.8613ZM70.6958 20.3388C71.1355 20.3388 71.6152 20.261 72.1349 20.0277C72.6546 19.8332 73.1343 19.561 73.574 19.2499V21.8944C73.0943 22.1666 72.5746 22.361 71.975 22.4777C71.3754 22.5944 70.7358 22.6721 70.0162 22.6721C68.1774 22.6721 66.6983 22.1277 65.579 20.9999C64.4197 19.8721 63.8601 18.4332 63.8601 16.7221C63.8601 14.7777 64.4597 13.1832 65.619 11.9388C66.7782 10.6944 68.4172 10.0721 70.5759 10.0721C71.1355 10.0721 71.6952 10.1499 72.2148 10.2666C72.7745 10.3832 73.2142 10.5777 73.534 10.7332V13.4555C73.0943 13.1444 72.6146 12.8721 72.1749 12.7166C71.6952 12.561 71.2155 12.4444 70.7358 12.4444C69.5765 12.4444 68.6571 12.7944 67.9375 13.5332C67.218 14.2721 66.8982 15.2444 66.8982 16.4888C66.8982 17.6944 67.2579 18.6666 67.9375 19.3277C68.6171 19.9888 69.5365 20.3388 70.6958 20.3388ZM81.8488 10.1499C82.0887 10.1499 82.2885 10.1499 82.4884 10.1888C82.6883 10.2277 82.8482 10.2666 82.9681 10.3055V13.1832C82.8082 13.0666 82.6083 12.9499 82.2885 12.8721C81.9687 12.7944 81.6489 12.7166 81.2092 12.7166C80.4897 12.7166 79.89 13.0277 79.4103 13.611C78.9306 14.1944 78.6508 15.0888 78.6508 16.3332V22.3999H75.7326V10.3444H78.6508V12.2499H78.6908C78.9706 11.5888 79.3704 11.0832 79.89 10.6944C80.4497 10.3444 81.0893 10.1499 81.8488 10.1499ZM83.128 16.5666C83.128 14.5832 83.7276 12.9888 84.8469 11.8221C86.0062 10.6555 87.6052 10.0721 89.6439 10.0721C91.5627 10.0721 93.0818 10.6166 94.1611 11.7444C95.2404 12.8721 95.8001 14.3888 95.8001 16.2944C95.8001 18.2388 95.2005 19.7944 94.0812 20.961C92.9219 22.1277 91.3629 22.711 89.3641 22.711C87.4453 22.711 85.9263 22.1666 84.807 21.0777C83.6877 19.9499 83.128 18.4332 83.128 16.5666ZM86.1661 16.4499C86.1661 17.6944 86.4459 18.6666 87.0456 19.3277C87.6452 19.9888 88.4847 20.3388 89.564 20.3388C90.6033 20.3388 91.4428 20.0277 92.0025 19.3277C92.5621 18.6666 92.8419 17.6944 92.8419 16.3721C92.8419 15.0888 92.5621 14.1166 92.0025 13.4166C91.4428 12.7555 90.6033 12.4055 89.604 12.4055C88.5246 12.4055 87.7251 12.7555 87.1255 13.4555C86.4459 14.1944 86.1661 15.1666 86.1661 16.4499ZM100.157 13.5332C100.157 13.9221 100.277 14.2721 100.557 14.5055C100.837 14.7388 101.397 15.011 102.316 15.361C103.475 15.8277 104.315 16.3332 104.754 16.8777C105.234 17.461 105.474 18.1221 105.474 18.9388C105.474 20.0666 105.034 20.961 104.115 21.661C103.235 22.361 101.996 22.6721 100.477 22.6721C99.9575 22.6721 99.3978 22.5944 98.7582 22.4777C98.1186 22.361 97.599 22.2055 97.1592 22.011V19.211C97.6789 19.561 98.2785 19.8721 98.8782 20.0666C99.4778 20.261 100.037 20.3777 100.557 20.3777C101.197 20.3777 101.716 20.2999 101.996 20.1055C102.316 19.911 102.476 19.6388 102.476 19.211C102.476 18.8221 102.316 18.511 101.996 18.1999C101.676 17.9277 101.037 17.6166 100.157 17.2666C99.078 16.8388 98.3185 16.3332 97.8788 15.7888C97.4391 15.2444 97.1992 14.5444 97.1992 13.6888C97.1992 12.5999 97.6389 11.7055 98.5184 11.0055C99.3978 10.3055 100.557 9.95547 101.956 9.95547C102.396 9.95547 102.876 9.99436 103.395 10.111C103.915 10.2277 104.395 10.3444 104.754 10.461V13.2221C104.355 12.9888 103.915 12.7555 103.395 12.561C102.876 12.3666 102.356 12.2888 101.876 12.2888C101.317 12.2888 100.877 12.4055 100.597 12.5999C100.317 12.8721 100.157 13.1444 100.157 13.5332ZM106.713 16.5666C106.713 14.5832 107.313 12.9888 108.432 11.8221C109.591 10.6555 111.19 10.0721 113.229 10.0721C115.148 10.0721 116.667 10.6166 117.746 11.7444C118.826 12.8721 119.385 14.3888 119.385 16.2944C119.385 18.2388 118.786 19.7944 117.666 20.961C116.507 22.1277 114.948 22.711 112.949 22.711C111.031 22.711 109.512 22.1666 108.392 21.0777C107.313 19.9499 106.713 18.4332 106.713 16.5666ZM109.751 16.4499C109.751 17.6944 110.031 18.6666 110.631 19.3277C111.23 19.9888 112.07 20.3388 113.149 20.3388C114.189 20.3388 115.028 20.0277 115.588 19.3277C116.147 18.6666 116.427 17.6944 116.427 16.3721C116.427 15.0888 116.147 14.1166 115.588 13.4166C115.028 12.7555 114.189 12.4055 113.189 12.4055C112.11 12.4055 111.31 12.7555 110.711 13.4555C110.071 14.1944 109.751 15.1666 109.751 16.4499ZM129.099 12.6777H124.742V22.3999H121.784V12.6777H119.705V10.3444H121.784V8.67213C121.784 7.42769 122.224 6.37769 123.063 5.56102C123.903 4.74436 124.982 4.35547 126.301 4.35547C126.661 4.35547 126.981 4.39436 127.26 4.39436C127.54 4.39436 127.78 4.47214 127.98 4.54991V6.99991C127.9 6.96102 127.7 6.88325 127.46 6.80547C127.22 6.72769 126.941 6.6888 126.621 6.6888C126.021 6.6888 125.541 6.88325 125.222 7.23325C124.902 7.58325 124.742 8.16658 124.742 8.86658V10.3055H129.099V7.58325L132.017 6.72769V10.3055H134.976V12.6388H132.017V18.2777C132.017 19.0166 132.177 19.5221 132.417 19.8332C132.697 20.1444 133.137 20.2999 133.736 20.2999C133.896 20.2999 134.096 20.261 134.336 20.1832C134.576 20.1055 134.776 20.0277 134.936 19.911V22.2444C134.736 22.361 134.456 22.4388 134.016 22.5166C133.576 22.5944 133.177 22.6332 132.737 22.6332C131.498 22.6332 130.578 22.3221 129.979 21.6999C129.379 21.0777 129.059 20.1055 129.059 18.8221L129.099 12.6777Z" fill="#565656"/>
<path d="M0.0234375 0H13.6949V13.3H0.0234375V0Z" fill="#565656"/>
<path d="M15.1328 0H28.8043V13.3H15.1328V0Z" fill="#565656"/>
<path d="M0.0234375 14.7002H13.6949V28.0002H0.0234375V14.7002Z" fill="#565656"/>
<path d="M15.1328 14.7H28.8043V28H15.1328V14.7Z" fill="#565656"/>
</g>
<defs>
<clipPath id="clip0_3839_115565">
<rect width="135" height="28" fill="white"/>
</clipPath>
</defs>
</svg>
