<svg width="170" height="59" viewBox="0 0 170 59" fill="none" xmlns="http://www.w3.org/2000/svg">
<g clip-path="url(#clip0_3798_114515)">
<path d="M73.1449 20.5999V37.3999H70.1468V24.2166H70.1068L64.7501 37.3999H62.7514L57.2748 24.2166H57.2348V37.3999H54.4766V20.5999H58.7939L63.7508 33.0444H63.8307L69.0674 20.5999H73.1449ZM75.6233 21.8832C75.6233 21.4166 75.7832 21.0277 76.143 20.7166C76.5028 20.4055 76.9025 20.2499 77.3822 20.2499C77.9019 20.2499 78.3416 20.4055 78.6614 20.7166C78.9812 21.0277 79.1811 21.4166 79.1811 21.8832C79.1811 22.3499 79.0212 22.7388 78.6614 23.0499C78.3017 23.361 77.9019 23.5166 77.3822 23.5166C76.8626 23.5166 76.4628 23.361 76.143 23.0499C75.8232 22.6999 75.6233 22.311 75.6233 21.8832ZM78.8613 25.3444V37.3999H75.9431V25.3444H78.8613ZM87.6958 35.3388C88.1355 35.3388 88.6152 35.261 89.1349 35.0277C89.6546 34.8332 90.1343 34.561 90.574 34.2499V36.8944C90.0943 37.1666 89.5746 37.361 88.975 37.4777C88.3754 37.5944 87.7358 37.6721 87.0162 37.6721C85.1774 37.6721 83.6983 37.1277 82.579 35.9999C81.4197 34.8721 80.8601 33.4332 80.8601 31.7221C80.8601 29.7777 81.4597 28.1832 82.619 26.9388C83.7782 25.6944 85.4172 25.0721 87.5759 25.0721C88.1355 25.0721 88.6952 25.1499 89.2148 25.2666C89.7745 25.3832 90.2142 25.5777 90.534 25.7332V28.4555C90.0943 28.1444 89.6146 27.8721 89.1749 27.7166C88.6952 27.561 88.2155 27.4444 87.7358 27.4444C86.5765 27.4444 85.6571 27.7944 84.9375 28.5332C84.218 29.2721 83.8982 30.2444 83.8982 31.4888C83.8982 32.6944 84.2579 33.6666 84.9375 34.3277C85.6171 34.9888 86.5365 35.3388 87.6958 35.3388ZM98.8488 25.1499C99.0887 25.1499 99.2885 25.1499 99.4884 25.1888C99.6883 25.2277 99.8482 25.2666 99.9681 25.3055V28.1832C99.8082 28.0666 99.6083 27.9499 99.2885 27.8721C98.9687 27.7944 98.6489 27.7166 98.2092 27.7166C97.4897 27.7166 96.89 28.0277 96.4103 28.611C95.9306 29.1944 95.6508 30.0888 95.6508 31.3332V37.3999H92.7326V25.3444H95.6508V27.2499H95.6908C95.9706 26.5888 96.3704 26.0832 96.89 25.6944C97.4497 25.3444 98.0893 25.1499 98.8488 25.1499ZM100.128 31.5666C100.128 29.5832 100.728 27.9888 101.847 26.8221C103.006 25.6555 104.605 25.0721 106.644 25.0721C108.563 25.0721 110.082 25.6166 111.161 26.7444C112.24 27.8721 112.8 29.3888 112.8 31.2944C112.8 33.2388 112.2 34.7944 111.081 35.961C109.922 37.1277 108.363 37.711 106.364 37.711C104.445 37.711 102.926 37.1666 101.807 36.0777C100.688 34.9499 100.128 33.4332 100.128 31.5666ZM103.166 31.4499C103.166 32.6944 103.446 33.6666 104.046 34.3277C104.645 34.9888 105.485 35.3388 106.564 35.3388C107.603 35.3388 108.443 35.0277 109.002 34.3277C109.562 33.6666 109.842 32.6944 109.842 31.3721C109.842 30.0888 109.562 29.1166 109.002 28.4166C108.443 27.7555 107.603 27.4055 106.604 27.4055C105.525 27.4055 104.725 27.7555 104.126 28.4555C103.446 29.1944 103.166 30.1666 103.166 31.4499ZM117.157 28.5332C117.157 28.9221 117.277 29.2721 117.557 29.5055C117.837 29.7388 118.397 30.011 119.316 30.361C120.475 30.8277 121.315 31.3332 121.754 31.8777C122.234 32.461 122.474 33.1221 122.474 33.9388C122.474 35.0666 122.034 35.961 121.115 36.661C120.235 37.361 118.996 37.6721 117.477 37.6721C116.957 37.6721 116.398 37.5944 115.758 37.4777C115.119 37.361 114.599 37.2055 114.159 37.011V34.211C114.679 34.561 115.279 34.8721 115.878 35.0666C116.478 35.261 117.037 35.3777 117.557 35.3777C118.197 35.3777 118.716 35.2999 118.996 35.1055C119.316 34.911 119.476 34.6388 119.476 34.211C119.476 33.8221 119.316 33.511 118.996 33.1999C118.676 32.9277 118.037 32.6166 117.157 32.2666C116.078 31.8388 115.319 31.3332 114.879 30.7888C114.439 30.2444 114.199 29.5444 114.199 28.6888C114.199 27.5999 114.639 26.7055 115.518 26.0055C116.398 25.3055 117.557 24.9555 118.956 24.9555C119.396 24.9555 119.876 24.9944 120.395 25.111C120.915 25.2277 121.395 25.3444 121.754 25.461V28.2221C121.355 27.9888 120.915 27.7555 120.395 27.561C119.876 27.3666 119.356 27.2888 118.876 27.2888C118.317 27.2888 117.877 27.4055 117.597 27.5999C117.317 27.8721 117.157 28.1444 117.157 28.5332ZM123.713 31.5666C123.713 29.5832 124.313 27.9888 125.432 26.8221C126.591 25.6555 128.19 25.0721 130.229 25.0721C132.148 25.0721 133.667 25.6166 134.746 26.7444C135.826 27.8721 136.385 29.3888 136.385 31.2944C136.385 33.2388 135.786 34.7944 134.666 35.961C133.507 37.1277 131.948 37.711 129.949 37.711C128.031 37.711 126.512 37.1666 125.392 36.0777C124.313 34.9499 123.713 33.4332 123.713 31.5666ZM126.751 31.4499C126.751 32.6944 127.031 33.6666 127.631 34.3277C128.23 34.9888 129.07 35.3388 130.149 35.3388C131.189 35.3388 132.028 35.0277 132.588 34.3277C133.147 33.6666 133.427 32.6944 133.427 31.3721C133.427 30.0888 133.147 29.1166 132.588 28.4166C132.028 27.7555 131.189 27.4055 130.189 27.4055C129.11 27.4055 128.31 27.7555 127.711 28.4555C127.071 29.1944 126.751 30.1666 126.751 31.4499ZM146.099 27.6777H141.742V37.3999H138.784V27.6777H136.705V25.3444H138.784V23.6721C138.784 22.4277 139.224 21.3777 140.063 20.561C140.903 19.7444 141.982 19.3555 143.301 19.3555C143.661 19.3555 143.981 19.3944 144.26 19.3944C144.54 19.3944 144.78 19.4721 144.98 19.5499V21.9999C144.9 21.961 144.7 21.8832 144.46 21.8055C144.22 21.7277 143.941 21.6888 143.621 21.6888C143.021 21.6888 142.541 21.8832 142.222 22.2332C141.902 22.5832 141.742 23.1666 141.742 23.8666V25.3055H146.099V22.5832L149.017 21.7277V25.3055H151.976V27.6388H149.017V33.2777C149.017 34.0166 149.177 34.5221 149.417 34.8332C149.697 35.1444 150.137 35.2999 150.736 35.2999C150.896 35.2999 151.096 35.261 151.336 35.1832C151.576 35.1055 151.776 35.0277 151.936 34.911V37.2444C151.736 37.361 151.456 37.4388 151.016 37.5166C150.576 37.5944 150.177 37.6332 149.737 37.6332C148.498 37.6332 147.578 37.3221 146.979 36.6999C146.379 36.0777 146.059 35.1055 146.059 33.8221L146.099 27.6777Z" fill="#565656"/>
<path d="M17.0234 15H30.6949V28.3H17.0234V15Z" fill="#565656"/>
<path d="M32.1328 15H45.8043V28.3H32.1328V15Z" fill="#565656"/>
<path d="M17.0234 29.7002H30.6949V43.0002H17.0234V29.7002Z" fill="#565656"/>
<path d="M32.1328 29.7H45.8043V43H32.1328V29.7Z" fill="#565656"/>
</g>
<defs>
<clipPath id="clip0_3798_114515">
<rect width="135" height="28" fill="white" transform="translate(17 15)"/>
</clipPath>
</defs>
</svg>
