<svg width="20" height="17" viewBox="0 0 20 17" fill="none" xmlns="http://www.w3.org/2000/svg">
<path d="M20 2.01242C19.2511 2.35943 18.4567 2.58721 17.6433 2.68818C18.4905 2.15705 19.1411 1.31598 19.4474 0.313858C18.642 0.813765 17.7608 1.16598 16.8419 1.35529C16.0934 0.521245 15.027 0 13.8468 0C11.5807 0 9.74344 1.92156 9.74344 4.29155C9.74344 4.62796 9.77977 4.95547 9.84969 5.26965C6.43953 5.09062 3.41609 3.38209 1.39227 0.785586C1.03914 1.41943 0.836797 2.15673 0.836797 2.94313C0.836797 4.4321 1.56125 5.74563 2.66219 6.51528C2.01059 6.49394 1.37332 6.30986 0.803594 5.97843C0.803359 5.99641 0.803359 6.01438 0.803359 6.03244C0.803359 8.11178 2.21773 9.84638 4.09477 10.2406C3.49054 10.4125 2.85674 10.4377 2.2418 10.3142C2.76391 12.0192 4.2793 13.2599 6.07477 13.2947C4.67047 14.4457 2.90117 15.1318 0.978828 15.1318C0.647578 15.1318 0.321016 15.1115 0 15.0718C1.81586 16.2895 3.97266 17 6.28984 17C13.8373 17 17.9644 10.4605 17.9644 4.78926C17.9644 4.60312 17.9605 4.41804 17.9525 4.23403C18.7558 3.62664 19.4492 2.87434 20 2.01242Z" fill="#AEAEAE"/>
</svg>
