<svg width="19" height="22" viewBox="0 0 19 22" fill="none" xmlns="http://www.w3.org/2000/svg">
<path d="M16.1542 4.11836C14.3772 2.33711 12.0107 1.35742 9.49576 1.35742C4.30469 1.35742 0.0805804 5.58153 0.0805804 10.7726C0.0805804 12.4309 0.51317 14.0509 1.33594 15.4802L0 20.3574L4.99174 19.0469C6.36585 19.7976 7.91384 20.192 9.49152 20.192H9.49576C14.6826 20.192 19 15.9679 19 10.7768C19 8.26189 17.9312 5.89961 16.1542 4.11836ZM9.49576 18.6059C8.08772 18.6059 6.70937 18.2284 5.50915 17.5159L5.225 17.3463L2.26473 18.1224L3.05357 15.2342L2.86696 14.9373C2.08237 13.6905 1.67098 12.2527 1.67098 10.7726C1.67098 6.45943 5.18259 2.94782 9.5 2.94782C11.5908 2.94782 13.5545 3.76211 15.0304 5.24224C16.5062 6.72238 17.4138 8.68599 17.4096 10.7768C17.4096 15.0943 13.8089 18.6059 9.49576 18.6059ZM13.7877 12.7447C13.5545 12.6259 12.3967 12.0576 12.1804 11.9813C11.9641 11.9007 11.8071 11.8626 11.6502 12.1001C11.4933 12.3376 11.0437 12.8634 10.9038 13.0246C10.7681 13.1815 10.6281 13.2027 10.3949 13.084C9.01228 12.3927 8.10469 11.8498 7.19286 10.2849C6.95112 9.86925 7.4346 9.89894 7.88415 8.99983C7.96049 8.84291 7.92232 8.7072 7.86295 8.58845C7.80357 8.4697 7.33281 7.31189 7.13772 6.84113C6.94688 6.38309 6.75179 6.44671 6.60759 6.43823C6.47187 6.42974 6.31495 6.42974 6.15804 6.42974C6.00112 6.42974 5.74665 6.48912 5.53036 6.72238C5.31406 6.95988 4.70759 7.52818 4.70759 8.68599C4.70759 9.84381 5.55156 10.9634 5.66607 11.1204C5.78482 11.2773 7.32433 13.6523 9.68661 14.6744C11.1795 15.319 11.7647 15.3742 12.5112 15.2639C12.965 15.196 13.9022 14.6956 14.0973 14.1443C14.2924 13.5929 14.2924 13.1222 14.233 13.0246C14.1779 12.9186 14.021 12.8592 13.7877 12.7447Z" fill="#AEAEAE"/>
</svg>
