<svg width="119" height="31" viewBox="0 0 119 31" fill="none" xmlns="http://www.w3.org/2000/svg">
<g clip-path="url(#clip0_3839_115572)">
<mask id="mask0_3839_115572" style="mask-type:luminance" maskUnits="userSpaceOnUse" x="-32" y="-28" width="153" height="87">
<path d="M-31.1523 -27.2012H120.809V58.2009H-31.1523V-27.2012Z" fill="white"/>
</mask>
<g mask="url(#mask0_3839_115572)">
<mask id="mask1_3839_115572" style="mask-type:luminance" maskUnits="userSpaceOnUse" x="0" y="0" width="31" height="31">
<path d="M15.5 31.0001C24.0605 31.0001 31.0001 24.0605 31.0001 15.5C31.0001 6.9396 24.0605 0 15.5 0C6.9396 0 0 6.9396 0 15.5C0 24.0605 6.9396 31.0001 15.5 31.0001Z" fill="white"/>
</mask>
<g mask="url(#mask1_3839_115572)">
<path d="M-0.761719 -0.759766H31.7579V31.7599H-0.761719V-0.759766Z" fill="#565656"/>
</g>
<mask id="mask2_3839_115572" style="mask-type:luminance" maskUnits="userSpaceOnUse" x="0" y="0" width="31" height="31">
<path d="M15.5008 30.6959C23.8934 30.6959 30.6969 23.8924 30.6969 15.4998C30.6969 7.10724 23.8934 0.303711 15.5008 0.303711C7.10822 0.303711 0.304688 7.10724 0.304688 15.4998C0.304688 23.8924 7.10822 30.6959 15.5008 30.6959Z" fill="white"/>
</mask>
<g mask="url(#mask2_3839_115572)">
<path d="M-0.457031 -0.456055H31.4548V31.4558H-0.457031V-0.456055Z" fill="#565656"/>
</g>
<mask id="mask3_3839_115572" style="mask-type:luminance" maskUnits="userSpaceOnUse" x="1" y="1" width="29" height="29">
<path d="M15.4999 29.4805C23.2211 29.4805 29.4804 23.2212 29.4804 15.5001C29.4804 7.7789 23.2211 1.51965 15.4999 1.51965C7.77878 1.51965 1.51953 7.7789 1.51953 15.5001C1.51953 23.2212 7.77878 29.4805 15.4999 29.4805Z" fill="white"/>
</mask>
<g mask="url(#mask3_3839_115572)">
<path d="M0.757812 0.759888H30.2383V30.2403H0.757812V0.759888Z" fill="#565656"/>
</g>
<mask id="mask4_3839_115572" style="mask-type:luminance" maskUnits="userSpaceOnUse" x="6" y="10" width="19" height="11">
<path d="M19.7554 13.6855L23.7064 10.7983C24.0513 10.5171 24.3142 10.5825 24.3142 11.1022V19.9068C24.3142 20.4903 23.986 20.4235 23.7064 20.2107L19.7554 17.3235V13.6855ZM6.38281 11.1235V17.6882C6.38643 18.4009 6.67292 19.083 7.17929 19.5845C7.68566 20.086 8.37047 20.3659 9.08316 20.3627H18.6567C18.7862 20.3631 18.9106 20.3121 19.0026 20.221C19.0946 20.1298 19.1467 20.0059 19.1475 19.8764V13.3117C19.1439 12.599 18.8574 11.9169 18.3511 11.4154C17.8447 10.9139 17.1599 10.634 16.4472 10.6372H6.87365C6.74413 10.6368 6.61974 10.6877 6.52774 10.7789C6.43573 10.87 6.38362 10.994 6.38281 11.1235Z" fill="white"/>
</mask>
<g mask="url(#mask4_3839_115572)">
<path d="M5.62109 9.87744H25.0721V21.1226H5.62109V9.87744Z" fill="#8E8E8E"/>
</g>
</g>
</g>
<path fill-rule="evenodd" clip-rule="evenodd" d="M103.326 11.9469C103.628 12.4685 103.727 13.061 103.759 13.7277L103.802 14.615V20.8276L103.846 21.718C103.932 23.1701 105.003 24.2441 106.467 24.3352L107.353 24.3784V14.6165L107.396 13.7292C107.433 13.0718 107.531 12.4669 107.838 11.9407C108.822 10.2464 110.993 9.67077 112.689 10.6522C113.226 10.9639 113.672 11.4114 113.984 11.9515C114.285 12.4731 114.381 13.0765 114.418 13.7292L114.461 14.615V20.8292L114.504 21.7196C114.595 23.1778 115.658 24.2518 117.127 24.3367L118.01 24.3799V13.7308C118.01 9.80811 114.833 6.62925 110.91 6.62925C108.872 6.62771 106.929 7.50421 105.583 9.03346C104.236 7.50267 102.295 6.62617 100.256 6.62617C98.7826 6.62617 97.4138 7.07368 96.2796 7.84679C95.5867 7.07368 94.042 6.62617 93.1517 6.62617V24.3799L94.039 24.3367C95.5235 24.2395 96.599 23.1933 96.6561 21.7196L96.704 20.8292V14.6165L96.7472 13.7292C96.7842 13.058 96.8768 12.47 97.1808 11.9454C97.8166 10.8497 98.9878 10.1769 100.255 10.1769C101.519 10.1754 102.691 10.8513 103.326 11.9469ZM42.5477 24.3352L43.435 24.3784H56.7491L56.7059 23.4926C56.584 22.0344 55.5517 20.9665 54.0888 20.8708L53.2015 20.8276H45.2127L55.8618 10.1738L55.8186 9.28808C55.7492 7.81438 54.6736 6.74962 53.2015 6.66629L52.3142 6.62462L39 6.62L39.0432 7.5073C39.1605 8.95321 40.2083 10.0427 41.6604 10.1245L42.5508 10.1692H50.538L39.8873 20.8261L39.9305 21.7134C40.0169 23.1809 41.074 24.241 42.5477 24.3352ZM89.6626 9.22326C93.1285 12.6891 93.1301 18.3108 89.6626 21.7751C86.1921 25.241 80.5736 25.241 77.1031 21.7751C73.6372 18.3092 73.6372 12.6861 77.1031 9.22018C78.7681 7.55514 81.0226 6.62 83.3759 6.62C85.7369 6.62154 87.9976 7.55668 89.6626 9.22326ZM87.152 11.737C89.2306 13.8172 89.2306 17.1889 87.152 19.2706C85.0718 21.3492 81.6985 21.3492 79.6184 19.2706C77.5398 17.1905 77.5398 13.8172 79.6184 11.737C81.6985 9.65843 85.0718 9.65843 87.152 11.737ZM64.7487 6.62462C67.102 6.62462 69.3596 7.56131 71.0216 9.22481C74.489 12.6907 74.489 18.3139 71.0216 21.7767C67.5511 25.2425 61.9325 25.2425 58.462 21.7767C54.9961 18.3108 54.9961 12.6876 58.462 9.22172C60.127 7.55668 62.3816 6.62154 64.7348 6.62154H64.7472V6.62462H64.7487ZM68.5078 11.7339C70.588 13.8141 70.588 17.1874 68.5078 19.2691C66.4277 21.3477 63.0544 21.3477 60.9742 19.2691C58.8956 17.1889 58.8956 13.8156 60.9742 11.7355C63.0575 9.65688 66.4277 9.65688 68.5078 11.7339Z" fill="#565656"/>
<defs>
<clipPath id="clip0_3839_115572">
<rect width="31" height="31" fill="white"/>
</clipPath>
</defs>
</svg>
